<svg width="92" height="92" viewBox="0 0 92 92" fill="none" xmlns="http://www.w3.org/2000/svg">
<path d="M45.1558 0.000747596C41.387 0.0180684 37.7878 0.335982 34.621 0.890236C25.2918 2.52039 23.598 5.93245 23.598 12.2249V20.5352H45.644V23.3053H23.598H15.3243C8.91713 23.3053 3.30682 27.1144 1.55198 34.3604C-0.472193 42.6661 -0.561976 47.8489 1.55198 56.5214C3.11909 62.9768 6.86156 67.5765 13.2687 67.5765H20.8487V57.6142C20.8487 50.417 27.1446 44.0686 34.621 44.0686H56.6413C62.7709 44.0686 67.6643 39.0767 67.6643 32.9881V12.2249C67.6643 6.31554 62.624 1.87648 56.6413 0.890236C52.8541 0.266699 48.9246 -0.0165732 45.1558 0.000747596ZM33.2335 6.68462C35.5107 6.68462 37.3703 8.55398 37.3703 10.8525C37.3703 13.1429 35.5107 14.995 33.2335 14.995C30.9481 14.995 29.0966 13.1429 29.0966 10.8525C29.0966 8.55398 30.9481 6.68462 33.2335 6.68462Z" fill="url(#paint0_linear_2_40)"/>
<path d="M70.4136 23.3053V32.9881C70.4136 40.4949 63.979 46.8133 56.6413 46.8133H34.621C28.5893 46.8133 23.598 51.9192 23.598 57.8937V78.6569C23.598 84.5663 28.7933 88.0421 34.621 89.7374C41.5995 91.767 48.2916 92.1338 56.6413 89.7374C62.1915 88.148 67.6643 84.9494 67.6643 78.6569V70.3466H45.644V67.5765H67.6643H78.6873C85.0945 67.5765 87.4821 63.1561 89.7103 56.5214C92.012 49.691 91.914 43.1225 89.7103 34.3604C88.1269 28.0517 85.1026 23.3053 78.6873 23.3053H70.4136ZM58.0288 75.8868C60.3142 75.8868 62.1657 77.7389 62.1657 80.0293C62.1657 82.3278 60.3142 84.1972 58.0288 84.1972C55.7516 84.1972 53.892 82.3278 53.892 80.0293C53.892 77.7389 55.7516 75.8868 58.0288 75.8868Z" fill="url(#paint1_linear_2_40)"/>
<defs>
<linearGradient id="paint0_linear_2_40" x1="7.1955e-08" y1="6.18226e-08" x2="50.3651" y2="43.392" gradientUnits="userSpaceOnUse">
<stop stop-color="#5A9FD4"/>
<stop offset="1" stop-color="#306998"/>
</linearGradient>
<linearGradient id="paint1_linear_2_40" x1="57.499" y1="79.3306" x2="39.5256" y2="53.8664" gradientUnits="userSpaceOnUse">
<stop stop-color="#FFD43B"/>
<stop offset="1" stop-color="#FFE873"/>
</linearGradient>
</defs>
</svg>
